HIERARCHY
ROOT Hips
{
	OFFSET -3.958830 18.904000 13.208200
	CHANNELS 6 Xposition Yposition Zposition Zrotation Yrotation Xrotation 
	JOINT LHipJoint
	{
		OFFSET 0.000000 0.000000 0.000000
		CHANNELS 3 Zrotation Yrotation Xrotation
		JOINT LeftUpLeg
		{
			OFFSET 1.800000 -1.400000 0.085000
			CHANNELS 3 Zrotation Yrotation Xrotation
			JOINT LeftLeg
			{
				OFFSET 2.215000 -6.000000 0.000000
				CHANNELS 3 Zrotation Yrotation Xrotation
				JOINT LeftFoot
				{
					OFFSET 2.500000 -6.900000 0.000000
					CHANNELS 3 Zrotation Yrotation Xrotation
					JOINT LeftToeBase
					{
						OFFSET 0.200000 -0.500000 1.950000
						CHANNELS 3 Zrotation Yrotation Xrotation
						End Site
						{
							OFFSET 0.000000 0.000000 0.000000
						}
					}
				}
			}
		}
	}
	JOINT RHipJoint
	{
		OFFSET 0.000000 0.000000 0.000000
		CHANNELS 3 Zrotation Yrotation Xrotation
		JOINT RightUpLeg
		{
			OFFSET -1.800000 -1.400000 0.085000
			CHANNELS 3 Zrotation Yrotation Xrotation
			JOINT RightLeg
			{
				OFFSET -2.215000 -6.000000 0.000000
				CHANNELS 3 Zrotation Yrotation Xrotation
				JOINT RightFoot
				{
					OFFSET -2.500000 -6.900000 0.000000
					CHANNELS 3 Zrotation Yrotation Xrotation
					JOINT RightToeBase
					{
						OFFSET -0.200000 -0.500000 1.950000
						CHANNELS 3 Zrotation Yrotation Xrotation
						End Site
						{
							OFFSET 0.000000 0.000000 0.000000
						}
					}
				}
			}
		}
	}
	JOINT LowerBack
	{
		OFFSET 0.000000 0.000000 0.000000
		CHANNELS 3 Zrotation Yrotation Xrotation
		JOINT Spine
		{
			OFFSET -0.087000 1.940000 -0.288900
			CHANNELS 3 Zrotation Yrotation Xrotation
			JOINT Spine1
			{
				OFFSET 0.000000 1.950000 0.060000
				CHANNELS 3 Zrotation Yrotation Xrotation
				JOINT Neck
				{
					OFFSET 0.000000 0.000000 0.000000
					CHANNELS 3 Zrotation Yrotation Xrotation
					JOINT Neck1
					{
						OFFSET 0.000000 1.600000 0.340000
						CHANNELS 3 Zrotation Yrotation Xrotation
						JOINT Head
						{
							OFFSET 0.000000 1.667000 -0.240000
							CHANNELS 3 Zrotation Yrotation Xrotation
							End Site
							{
								OFFSET 0.000000 0.000000 0.000000
							}
						}
					}
				}
				JOINT LeftShoulder
				{
					OFFSET 0.000000 0.000000 0.000000
					CHANNELS 3 Zrotation Yrotation Xrotation
					JOINT LeftArm
					{
						OFFSET 2.700000 1.550000 -0.730000
						CHANNELS 3 Zrotation Yrotation Xrotation
						JOINT LeftForeArm
						{
							OFFSET 5.450000 0.000000 0.000000
							CHANNELS 3 Zrotation Yrotation Xrotation
							JOINT LeftHand
							{
								OFFSET 3.450000 0.000000 0.000000
								CHANNELS 3 Zrotation Yrotation Xrotation
								JOINT LeftHandIndex1
								{
									OFFSET 0.750000 0.000000 0.000000
									CHANNELS 3 Zrotation Yrotation Xrotation
									End Site
									{
										OFFSET 0.000000 0.000000 0.000000
									}
								}
							}
						}
					}
				}
				JOINT RightShoulder
				{
					OFFSET 0.000000 0.000000 0.000000
					CHANNELS 3 Zrotation Yrotation Xrotation
					JOINT RightArm
					{
						OFFSET -2.700000 1.550000 -0.730000
						CHANNELS 3 Zrotation Yrotation Xrotation
						JOINT RightForeArm
						{
							OFFSET -5.450000 0.000000 0.000000
							CHANNELS 3 Zrotation Yrotation Xrotation
							JOINT RightHand
							{
								OFFSET -3.450000 0.000000 0.000000
								CHANNELS 3 Zrotation Yrotation Xrotation
								JOINT RightHandIndex1
								{
									OFFSET -0.750000 0.000000 0.000000
									CHANNELS 3 Zrotation Yrotation Xrotation
									End Site
									{
										OFFSET 0.000000 0.000000 0.000000
									}
								}
							}
						}
					}
				}
			}
		}
	}
}
MOTION
Frames: 7
Frame Time: 0.016667
-0.950330 16.508420 -5.572950 179.217204 55.443793 172.587540 -14.643838 13.265924 3.065708 11.146728 -0.542642 -26.941036 2.843473 3.857422 17.395983 -1.089515 3.309415 3.379507 0.041010 -0.071190 -0.421970 18.331454 -12.576844 2.637998 -16.803173 2.383548 -7.852058 2.036650 -5.323547 15.828388 -0.277513 -3.901371 3.267257 0.109730 0.604010 -0.136510 -5.897712 1.312553 -6.542381 30.121023 0.136841 13.385407 -16.019221 5.560374 3.020411 2.316689 -13.324911 -16.135056 -42.046814 30.659493 48.865940 6.653690 6.126520 -7.411150 -20.353056 -8.503726 8.287844 -64.815771 5.318343 -13.602511 53.321159 -26.103292 -17.539434 -3.645598 2.401151 0.871520 0.001060 -0.075610 0.301620 15.652951 21.667954 7.069813 45.614013 24.047527 -3.211068 -22.980785 11.052333 -4.111279 2.041854 -0.872725 -0.603980 0.859770 0.433310 -0.068360 
-0.922470 16.494760 -5.690700 178.689657 57.920817 172.531477 -14.701189 13.269103 3.110708 11.745068 -0.437593 -27.103589 1.448401 4.692305 19.891285 -1.041609 3.701357 3.215208 0.042450 -0.077520 -0.405470 18.274441 -12.634520 2.555874 -16.761115 2.531760 -8.827640 0.243340 -4.904599 16.604151 -0.257015 -3.762424 3.313509 0.098320 0.588910 -0.136030 -5.978928 1.441717 -6.481028 30.507289 0.343994 12.212807 -17.272303 5.498803 2.750966 3.023207 -13.266875 -16.177047 -41.519106 31.170075 49.419549 6.129830 6.711740 -6.821970 -19.033244 -8.055378 8.110717 -68.565209 5.308226 -13.451797 49.808996 -22.940235 -14.584278 -3.669490 2.422347 0.881450 -0.006050 -0.062710 0.300250 12.907315 21.336623 7.178047 51.473191 24.289000 -2.537638 -22.723631 11.461208 -4.244054 2.023089 -0.882553 -0.600220 0.852630 0.424120 -0.075090 
-0.895830 16.490800 -5.805260 178.374119 60.299138 172.429183 -14.770148 13.271886 3.117538 12.255316 -0.317055 -26.842925 0.358108 5.465144 22.010230 -0.993131 4.066015 3.055939 0.054550 -0.043190 -0.400340 18.217670 -12.672536 2.478286 -16.493442 2.568352 -9.582299 -1.678540 -4.403637 17.102559 -0.250671 -3.637366 3.356894 0.108160 0.569160 -0.139830 -6.073706 1.533835 -6.405785 31.114236 0.096320 11.100525 -18.520089 4.989172 2.792061 3.606615 -13.097216 -16.061217 -41.324408 31.749797 49.868198 5.580230 7.081390 -6.806920 -18.831906 -8.237247 7.919408 -70.587732 5.334034 -12.580542 44.457524 -18.836462 -10.916518 -3.693832 2.433488 0.876550 -0.013240 -0.043040 0.299790 11.512165 21.171410 7.156493 55.920194 24.423275 -2.155501 -22.065397 12.320194 -4.364478 2.002570 -0.879463 -0.582730 0.852570 0.412880 -0.067890 
-0.873140 16.493920 -5.911680 178.153143 61.986122 171.980067 -14.830758 13.298531 3.099373 12.505657 -0.298749 -26.307769 -0.274817 6.078794 23.996801 -0.962252 4.416730 2.903165 0.079740 -0.016790 -0.356920 18.171031 -12.676002 2.416354 -16.404741 2.423376 -9.506420 -3.107327 -4.067893 17.120264 -0.275670 -3.594141 3.362063 0.114660 0.529360 -0.120060 -6.150881 1.509578 -6.340403 31.363376 -0.141524 10.110426 -19.451250 4.400144 3.321773 4.438256 -12.509537 -15.887042 -40.144109 31.554359 52.085734 4.263340 7.252660 -6.838310 -20.194955 -9.210410 7.490799 -69.927128 4.612084 -10.625701 37.617656 -14.199963 -7.362455 -3.720776 2.421577 0.888910 -0.018560 -0.007540 0.289560 11.142643 21.260844 7.300936 59.079783 23.626164 -2.624342 -21.628153 13.971622 -4.645264 1.965739 -0.871944 -0.561290 0.836780 0.398480 -0.081120 
-0.851020 16.502540 -6.013390 177.569357 63.284302 170.969511 -14.874755 13.395270 3.082630 12.370601 -0.384589 -25.468125 -0.611435 6.506355 25.624881 -0.935072 4.667988 2.784877 0.114460 0.015960 -0.286470 18.121829 -12.659987 2.371043 -16.749813 2.206716 -8.986880 -4.077181 -3.882081 16.969536 -0.320840 -3.578515 3.351466 0.117910 0.454980 -0.110010 -6.171393 1.347505 -6.304237 30.854491 -0.165042 9.578462 -19.753335 3.923765 3.268793 5.176168 -11.639385 -15.624124 -38.242781 30.948970 56.137606 3.057110 7.307880 -7.145040 -22.382101 -9.552846 6.814511 -67.887196 4.329426 -8.810833 30.816231 -10.925289 -4.968286 -3.711602 2.367863 0.924770 -0.048570 0.050380 0.270400 11.650690 20.567732 7.453918 61.402222 21.426331 -4.064341 -20.910589 17.234946 -5.160372 1.928534 -0.825544 -0.539000 0.814570 0.370060 -0.108390 
-0.833860 16.503990 -6.116290 177.693816 64.190703 170.689565 -14.895003 13.501771 3.086059 12.284297 -0.532556 -24.880185 -0.716330 6.773101 26.927719 -0.904174 4.865920 2.691523 0.126290 0.012050 -0.222600 18.095607 -12.598163 2.341948 -17.151802 1.955850 -8.254391 -4.333864 -3.899868 16.586396 -0.359338 -3.584209 3.339031 0.097180 0.382450 -0.099030 -6.111243 1.048609 -6.316178 30.373505 -0.092297 9.282655 -19.496053 3.531128 2.603079 5.885430 -10.748920 -15.306136 -35.923894 29.799770 60.363312 1.551490 7.450470 -6.972080 -24.505984 -9.017168 5.950216 -66.026332 4.448960 -7.637942 24.439393 -9.477647 -3.673314 -3.696639 2.293533 0.962960 -0.075260 0.100740 0.244610 12.101034 19.083360 7.651434 63.266872 18.157373 -6.330642 -20.030390 21.711208 -5.830125 1.892426 -0.762033 -0.522800 0.780970 0.349410 -0.141850 
-0.817410 16.494750 -6.219030 178.223915 64.922322 170.924840 -14.900436 13.599273 3.112465 12.330240 -0.686864 -24.576205 -0.774581 6.979767 28.008666 -0.857666 5.024044 2.616255 0.133950 0.006120 -0.167990 18.080640 -12.518459 2.328843 -17.671202 1.726548 -7.550127 -4.127223 -4.024716 16.091860 -0.390727 -3.598012 3.327473 0.071940 0.313740 -0.090510 -6.014317 0.714974 -6.373370 29.760830 0.153325 9.126857 -18.645111 3.327509 1.403100 6.389233 -9.970647 -14.817360 -33.262720 28.071828 64.478478 0.280260 7.454800 -6.489070 -26.365575 -7.590340 4.877587 -64.694177 4.877442 -7.086668 19.050170 -9.057930 -2.999128 -3.672360 2.227680 0.989780 -0.100970 0.146040 0.226370 12.638963 16.998229 7.730228 64.106808 14.583948 -8.341498 -18.674702 24.932450 -6.001568 1.888759 -0.713685 -0.503110 0.739010 0.320950 -0.167510 
